<svg xmlns="http://www.w3.org/2000/svg" xml:space="preserve" width="64" height="64" viewBox="0 0 64 64"><style>@media (prefers-color-scheme: dark) {.a {fill: #f0f0f0;}}</style><path fill="#D2527F" d="M62 32c0 16.564-13.436 30-30 30C15.433 62 2 48.564 2 32 2 15.433 15.433 2 32 2c16.564 0 30 13.433 30 30z"/><path d="M62 32c0-.996-.054-1.978-.147-2.948l-.041-.039c-.035-.04-.074-.075-.11-.112-.032-.036-.07-.071-.105-.105l-.104-.106-.106-.104c-.035-.037-.069-.073-.108-.107-.032-.036-.067-.069-.102-.103l-.107-.11c-.034-.037-.073-.072-.109-.108-.034-.035-.066-.068-.101-.1-.037-.039-.072-.076-.113-.111a2.241 2.241 0 0 0-.097-.099c-.036-.04-.075-.077-.114-.114-.031-.035-.067-.069-.102-.104l-.107-.106c-.036-.037-.069-.071-.107-.107-.033-.033-.066-.069-.104-.104-.033-.037-.071-.071-.106-.104a1.427 1.427 0 0 0-.109-.111l-.098-.099a2.892 2.892 0 0 0-.112-.11 1.358 1.358 0 0 0-.107-.108c-.032-.035-.068-.068-.102-.102-.034-.037-.071-.074-.106-.109-.037-.034-.069-.069-.104-.105-.038-.037-.071-.073-.108-.104-.035-.037-.069-.073-.108-.108-.032-.036-.067-.067-.102-.102a1.48 1.48 0 0 0-.112-.112c-.03-.034-.064-.066-.097-.101-.039-.037-.073-.074-.109-.108-.038-.037-.069-.072-.108-.108-.034-.035-.067-.069-.105-.105-.031-.035-.069-.071-.103-.105-.035-.037-.076-.074-.112-.111l-.101-.1c-.037-.037-.069-.073-.108-.106a1.532 1.532 0 0 0-.106-.108c-.033-.037-.071-.071-.106-.104-.031-.037-.069-.073-.104-.108l-.104-.104c-.036-.036-.069-.071-.107-.105a1.868 1.868 0 0 0-.109-.109c-.033-.037-.069-.069-.104-.103a2.015 2.015 0 0 0-.102-.105c-.039-.036-.072-.072-.107-.108-.036-.036-.069-.071-.107-.104a1.61 1.61 0 0 0-.109-.11c-.032-.036-.067-.069-.103-.103a2.2 2.2 0 0 0-.108-.108c-.032-.034-.067-.067-.102-.102-.037-.037-.071-.074-.106-.108-.037-.037-.07-.071-.108-.106a1.16 1.16 0 0 0-.106-.104c-.031-.037-.067-.071-.102-.105-.035-.037-.074-.075-.11-.111l-.104-.103c-.036-.037-.068-.071-.107-.105a1.766 1.766 0 0 0-.106-.106 1.739 1.739 0 0 0-.104-.106c-.033-.036-.071-.071-.104-.107l-.106-.104c-.036-.037-.069-.073-.107-.107a2.292 2.292 0 0 0-.11-.111 1.557 1.557 0 0 0-.101-.098c-.033-.037-.07-.074-.105-.11-.038-.035-.071-.069-.106-.105-.036-.037-.069-.072-.108-.106-.034-.036-.066-.071-.105-.107-.033-.037-.07-.07-.105-.104-.034-.037-.07-.073-.105-.108a3.4 3.4 0 0 1-.104-.104l-.106-.104c-.035-.037-.069-.073-.109-.108a1.457 1.457 0 0 0-.104-.104 1.8 1.8 0 0 0-.107-.107c-.032-.036-.07-.07-.104-.105l-.106-.105c-.036-.037-.069-.071-.106-.106-.034-.035-.067-.071-.106-.106-.032-.036-.068-.069-.102-.104-.035-.037-.076-.075-.112-.112a2.08 2.08 0 0 1-.105-.105c-.035-.034-.067-.068-.105-.102-.033-.035-.066-.072-.105-.108-.034-.037-.073-.072-.108-.106-.032-.036-.067-.069-.102-.104l-.106-.108c-.037-.035-.07-.071-.108-.105a1.505 1.505 0 0 0-.106-.105c-.031-.037-.069-.071-.104-.106-.032-.036-.069-.071-.104-.105l-.107-.109c-.036-.036-.07-.071-.105-.103a2.186 2.186 0 0 0-.108-.107 1.48 1.48 0 0 0-.104-.106c-.033-.036-.069-.071-.104-.107a3.455 3.455 0 0 0-.106-.104c-.037-.037-.069-.072-.104-.106-.038-.036-.069-.071-.108-.106-.034-.035-.067-.071-.106-.105a1.473 1.473 0 0 0-.104-.105c-.034-.036-.071-.072-.106-.107-.038-.037-.069-.07-.104-.106l-.109-.107a1.724 1.724 0 0 0-.105-.104 1.501 1.501 0 0 0-.105-.106c-.033-.037-.07-.071-.105-.106l-.104-.104c-.037-.037-.071-.073-.11-.107a1.169 1.169 0 0 0-.106-.105c-.033-.037-.069-.071-.104-.105-.033-.037-.069-.073-.104-.108-.037-.035-.072-.071-.107-.106-.036-.036-.068-.069-.105-.103a1.548 1.548 0 0 0-.106-.109 2.12 2.12 0 0 0-.106-.106c-.032-.036-.069-.07-.104-.104l-.105-.108c-.038-.037-.071-.072-.106-.105-.038-.037-.069-.072-.108-.108-.034-.035-.066-.069-.105-.105-.031-.035-.067-.069-.102-.104a3.942 3.942 0 0 0-.112-.112l-.102-.1a2.282 2.282 0 0 0-.11-.11c-.033-.033-.065-.069-.104-.104a2.859 2.859 0 0 0-2.076-.902H17.625a2.886 2.886 0 0 0-2.875 2.874V46.39c0 .817.351 1.551.902 2.076.035.039.071.071.106.104.034.039.069.073.106.11l.107.106c.034.033.066.069.103.102.033.035.069.072.107.106.036.039.069.072.104.106.036.039.071.07.108.108l.104.106.106.104c.034.035.069.072.106.104.034.037.068.072.105.106.035.037.069.071.106.106.033.037.069.07.106.108.035.035.07.067.104.104.035.035.072.072.109.106.033.033.066.069.102.102.036.039.071.072.107.106.034.04.07.074.108.111l.104.104c.035.035.071.073.108.104.032.035.067.073.104.106.035.038.071.071.104.104.036.038.071.071.106.109.036.035.069.066.106.104.036.035.071.072.107.106.033.035.068.072.105.104.034.039.069.072.104.106l.107.106.105.106.105.106c.035.035.07.071.106.104.035.037.069.071.104.104.035.039.072.073.109.108.032.035.064.067.101.104.037.037.074.072.11.111l.105.103c.035.035.069.073.106.106.035.037.069.071.105.104.034.039.068.072.105.109.034.034.069.067.104.104.037.037.074.076.111.109.033.035.069.071.104.104.034.038.068.069.104.102.035.041.07.074.107.112l.106.104c.034.035.069.072.106.106.034.035.069.07.105.104.035.039.07.072.105.106l.107.106.104.106c.035.033.071.071.105.104.034.035.07.071.107.104.035.039.069.074.106.108.033.036.066.067.102.104.036.038.074.073.112.112.034.034.068.066.102.102.036.035.071.071.108.105.034.035.067.072.104.105.036.039.071.071.106.105.034.039.069.072.106.108.036.035.069.068.104.106.037.036.074.074.111.107.031.032.063.066.096.096.037.042.076.078.112.113.036.039.069.071.106.107l.105.106c.035.033.07.071.106.104.033.033.069.071.104.104.035.039.071.073.106.106.035.039.071.072.108.108l.102.104.109.109c.033.033.069.071.106.103.034.039.068.073.104.106.035.038.069.071.106.108l.104.104.109.109c.034.033.069.071.104.104.036.035.071.072.108.105.034.038.067.07.102.105l.108.108c.035.035.07.068.105.106l.107.104c.034.035.068.071.105.104.034.039.07.072.105.104.035.039.069.073.106.11.035.035.069.067.104.104.035.035.071.073.108.104.033.035.069.074.107.108.034.037.069.071.104.103.034.038.066.07.102.104l.111.112c.034.035.071.072.106.104.033.035.069.071.104.104.036.038.07.071.104.105.034.037.07.07.105.106l.114.114c.03.03.063.063.096.092.035.039.072.078.11.113.036.035.069.072.106.104.034.039.069.072.106.106.032.037.068.07.105.108.035.035.07.067.104.104.035.035.071.072.108.106.034.033.067.071.104.103.035.039.069.073.105.106.034.038.07.071.105.108.036.035.07.067.106.105.035.035.071.072.108.105.033.035.067.073.104.106.035.038.071.071.104.104.036.038.071.071.106.109.036.035.069.066.106.104.036.036.071.074.108.107.033.034.067.069.104.102.033.039.069.073.105.106.034.039.07.072.107.108.033.035.067.069.103.104l.109.109c.036.034.069.071.106.104.034.037.068.071.105.104.033.039.069.073.106.108l.104.106.106.104c.034.035.069.073.106.105.035.036.07.074.107.109l.041.042c1.011.118 1.994.172 2.99.172 16.564 0 30-13.436 30-30z" opacity=".2"/><path class="a" fill="#FFF" d="M44.937 19.063v25.873H19.063V19.063h25.874m1.439-4.313H17.625a2.886 2.886 0 0 0-2.875 2.874v28.751a2.887 2.887 0 0 0 2.875 2.876h28.751a2.887 2.887 0 0 0 2.876-2.876v-28.75a2.887 2.887 0 0 0-2.876-2.875z"/></svg>